<mxfile host="app.diagrams.net" modified="2024-07-22T22:43:28.045Z" agent="Mozilla/5.0 (X11; Linux x86_64) AppleWebKit/537.36 (KHTML, like Gecko) Chrome/121.0.0.0 Safari/537.36" version="24.7.1" etag="0Z1T4qKDcNcJyHHbYHlS" type="github">
  <diagram name="PÃ¡gina-1" id="bCckOxh29k_SidM9QDjj">
    <mxGraphModel>
      <root>
        <mxCell id="0" />
        <mxCell id="1" parent="0" />
      </root>
    </mxGraphModel>
  </diagram>
</mxfile>
